<svg width="22" height="22" viewBox="0 0 22 22" fill="none" xmlns="http://www.w3.org/2000/svg">
  <g fill="#1E4841">
    <path d="M 3.279 0 C 1.36 0.744 0 2.607 0 4.788 C 0 7.623 2.298 9.921 5.133 9.921 C 7.314 9.921 9.178 8.561 9.921 6.643 L 3.279 0 Z" transform="translate(0,0)"></path>
    <path d="M 3.279 0 C 1.36 0.744 0 2.607 0 4.788 C 0 7.623 2.298 9.921 5.133 9.921 C 7.314 9.921 9.178 8.561 9.921 6.643 L 3.279 0 Z" transform="translate(22,0) rotate(90)"></path>
    <path d="M 3.279 0 C 1.36 0.744 0 2.607 0 4.788 C 0 7.623 2.298 9.921 5.133 9.921 C 7.314 9.921 9.178 8.561 9.921 6.643 L 3.279 0 Z" transform="translate(0,22) rotate(-90)"></path>
    <path d="M 3.279 0 C 1.36 0.744 0 2.607 0 4.788 C 0 7.623 2.298 9.921 5.133 9.921 C 7.314 9.921 9.178 8.561 9.921 6.643 L 3.279 0 Z" transform="translate(22,22) rotate(180)"></path>
  </g>
</svg>